<svg width="223" height="33" viewBox="0 0 223 33" fill="none" xmlns="http://www.w3.org/2000/svg">
<path fill-rule="evenodd" clip-rule="evenodd" d="M8 0.970307C3.58172 0.970307 0 4.55203 0 8.97031V23.9703C0 27.1641 1.87154 29.9208 4.57773 31.2034C7.99521 26.0327 11.9597 18.1544 9.66526 11.1954C5.93222 -0.126824 25.309 13.1815 25.6981 31.1011C25.701 31.2366 25.7024 31.3704 25.7024 31.5024C28.7909 30.3941 31 27.4402 31 23.9703V8.97031C31 4.55203 27.4183 0.970307 23 0.970307H8Z" fill="black"/>
<path d="M46.7979 32.4102C45.3076 32.4102 43.9336 32.0273 42.6758 31.2617C41.4316 30.4961 40.4336 29.4775 39.6816 28.2061C38.9434 26.9209 38.5742 25.5127 38.5742 23.9814V22.0537C38.5742 21.9033 38.6426 21.8281 38.7793 21.8281H43.4961C43.6055 21.8281 43.6602 21.9033 43.6602 22.0537V23.9814C43.6602 24.8975 43.9678 25.6904 44.583 26.3604C45.1982 27.0166 45.9365 27.3447 46.7979 27.3447C47.6729 27.3447 48.418 27.0098 49.0332 26.3398C49.6484 25.6562 49.9561 24.8701 49.9561 23.9814C49.9561 22.9561 49.2861 22.0605 47.9463 21.2949C47.7275 21.1582 47.4404 20.9941 47.085 20.8027C46.7432 20.5977 46.333 20.3652 45.8545 20.1055C45.376 19.8457 44.9111 19.5928 44.46 19.3467C44.0088 19.0869 43.5713 18.8408 43.1475 18.6084C41.6162 17.7061 40.4746 16.5781 39.7227 15.2246C38.9844 13.8574 38.6152 12.3262 38.6152 10.6309C38.6152 9.07227 38.998 7.66406 39.7637 6.40625C40.5293 5.16211 41.5273 4.17773 42.7578 3.45312C44.002 2.71484 45.3486 2.3457 46.7979 2.3457C48.2881 2.3457 49.6553 2.71484 50.8994 3.45312C52.1436 4.20508 53.1348 5.20312 53.873 6.44727C54.625 7.69141 55.001 9.08594 55.001 10.6309V14.0762C55.001 14.1855 54.9463 14.2402 54.8369 14.2402H50.1201C50.0107 14.2402 49.9561 14.1855 49.9561 14.0762L49.915 10.6309C49.915 9.64648 49.6074 8.84668 48.9922 8.23145C48.377 7.61621 47.6455 7.30859 46.7979 7.30859C45.9365 7.30859 45.1982 7.63672 44.583 8.29297C43.9678 8.94922 43.6602 9.72852 43.6602 10.6309C43.6602 11.5469 43.8516 12.3125 44.2344 12.9277C44.6309 13.543 45.3486 14.1309 46.3877 14.6914C46.4971 14.7461 46.75 14.8828 47.1465 15.1016C47.543 15.3203 47.9805 15.5664 48.459 15.8398C48.9512 16.0996 49.3955 16.3389 49.792 16.5576C50.1885 16.7627 50.4277 16.8857 50.5098 16.9268C51.9043 17.7061 53.0049 18.6631 53.8115 19.7979C54.6318 20.9326 55.042 22.3271 55.042 23.9814C55.042 25.5811 54.6729 27.0166 53.9346 28.2881C53.1826 29.5596 52.1846 30.5645 50.9404 31.3027C49.6963 32.041 48.3154 32.4102 46.7979 32.4102Z" fill="black"/>
<path d="M62.876 32H58.1182C58.0088 32 57.9541 31.9316 57.9541 31.7949L57.9951 2.94043C57.9951 2.83105 58.0635 2.77637 58.2002 2.77637H62.876C63.0127 2.77637 63.0811 2.83105 63.0811 2.94043L63.04 14.3633H69.3359V2.94043C69.3359 2.83105 69.3906 2.77637 69.5 2.77637H74.1758C74.3125 2.77637 74.3809 2.83105 74.3809 2.94043L74.4629 31.7949C74.4629 31.9316 74.3945 32 74.2578 32H69.541C69.4043 32 69.3359 31.9316 69.3359 31.7949V19.4492H63.04V31.7949C63.04 31.9316 62.9854 32 62.876 32Z" fill="black"/>
<path d="M76.4727 31.7949L81.6816 2.94043C81.709 2.83105 81.7773 2.77637 81.8867 2.77637H87.9775C88.0869 2.77637 88.1553 2.83105 88.1826 2.94043L93.1865 31.7949C93.2002 31.9316 93.1455 32 93.0225 32H88.3672C88.2305 32 88.1553 31.9316 88.1416 31.7949L87.6904 28.7188H81.9688L81.5176 31.7949C81.5039 31.9316 81.4355 32 81.3125 32H76.6367C76.5273 32 76.4727 31.9316 76.4727 31.7949ZM84.6963 12.4355L82.8096 24.2275H86.8496L85.127 12.4355L84.8809 10.877L84.6963 12.4355Z" fill="black"/>
<path d="M100.733 32H95.9756C95.8662 32 95.8115 31.9316 95.8115 31.7949L95.8936 2.94043C95.8936 2.83105 95.9482 2.77637 96.0576 2.77637H104.548C106.065 2.77637 107.46 3.14551 108.731 3.88379C110.003 4.62207 111.015 5.61328 111.767 6.85742C112.532 8.10156 112.915 9.50977 112.915 11.082C112.915 12.1074 112.758 13.0371 112.443 13.8711C112.129 14.7051 111.76 15.4092 111.336 15.9834C110.926 16.5576 110.55 16.9814 110.208 17.2549C111.726 18.9365 112.484 20.9121 112.484 23.1816L112.525 31.7949C112.525 31.9316 112.457 32 112.32 32H107.562C107.453 32 107.398 31.959 107.398 31.877V23.1816C107.398 22.1699 107.043 21.2949 106.332 20.5566C105.621 19.8184 104.746 19.4492 103.707 19.4492H100.938L100.897 31.7949C100.897 31.9316 100.843 32 100.733 32ZM104.548 7.80078H100.938V14.4043H104.548C105.409 14.4043 106.175 14.083 106.845 13.4404C107.528 12.7979 107.87 12.0117 107.87 11.082C107.87 10.1934 107.542 9.42773 106.886 8.78516C106.229 8.12891 105.45 7.80078 104.548 7.80078Z" fill="black"/>
<path d="M120.995 32H116.237C116.128 32 116.073 31.9316 116.073 31.7949L116.155 2.98145C116.155 2.84473 116.21 2.77637 116.319 2.77637H121.036C121.146 2.77637 121.2 2.84473 121.2 2.98145V12.9277L127.783 2.94043C127.893 2.83105 127.995 2.77637 128.091 2.77637H132.91C133.033 2.77637 133.061 2.83105 132.992 2.94043L125.732 14.5273L133.874 31.8359C133.942 31.9453 133.874 32 133.669 32H128.542C128.405 32 128.323 31.9453 128.296 31.8359L122.615 19.4902L121.159 21.7871V31.7949C121.159 31.9316 121.104 32 120.995 32Z" fill="black"/>
<path d="M134.346 31.7949L139.555 2.94043C139.582 2.83105 139.65 2.77637 139.76 2.77637H145.851C145.96 2.77637 146.028 2.83105 146.056 2.94043L151.06 31.7949C151.073 31.9316 151.019 32 150.896 32H146.24C146.104 32 146.028 31.9316 146.015 31.7949L145.563 28.7188H139.842L139.391 31.7949C139.377 31.9316 139.309 32 139.186 32H134.51C134.4 32 134.346 31.9316 134.346 31.7949ZM142.569 12.4355L140.683 24.2275H144.723L143 12.4355L142.754 10.877L142.569 12.4355Z" fill="black"/>
<path d="M167.425 32H153.849C153.739 32 153.685 31.9316 153.685 31.7949L153.726 2.98145C153.726 2.84473 153.794 2.77637 153.931 2.77637H158.606C158.743 2.77637 158.812 2.84473 158.812 2.98145L158.771 26.832H167.425C167.562 26.832 167.63 26.9004 167.63 27.0371V31.7949C167.63 31.9316 167.562 32 167.425 32Z" fill="black"/>
<path d="M184.118 32H170.542C170.433 32 170.378 31.9316 170.378 31.7949L170.419 2.94043C170.419 2.83105 170.474 2.77637 170.583 2.77637H184.077C184.187 2.77637 184.241 2.84473 184.241 2.98145V7.67773C184.241 7.78711 184.187 7.8418 184.077 7.8418H175.464V14.4043H184.077C184.187 14.4043 184.241 14.459 184.241 14.5684L184.282 19.3262C184.282 19.4355 184.228 19.4902 184.118 19.4902H175.464V26.832H184.118C184.228 26.832 184.282 26.9004 184.282 27.0371V31.8359C184.282 31.9453 184.228 32 184.118 32Z" fill="black"/>
<path d="M192.937 32H188.179C188.069 32 188.015 31.9316 188.015 31.7949L188.097 2.94043C188.097 2.83105 188.151 2.77637 188.261 2.77637H196.751C198.269 2.77637 199.663 3.14551 200.935 3.88379C202.206 4.62207 203.218 5.61328 203.97 6.85742C204.735 8.10156 205.118 9.50977 205.118 11.082C205.118 12.1074 204.961 13.0371 204.646 13.8711C204.332 14.7051 203.963 15.4092 203.539 15.9834C203.129 16.5576 202.753 16.9814 202.411 17.2549C203.929 18.9365 204.688 20.9121 204.688 23.1816L204.729 31.7949C204.729 31.9316 204.66 32 204.523 32H199.766C199.656 32 199.602 31.959 199.602 31.877V23.1816C199.602 22.1699 199.246 21.2949 198.535 20.5566C197.824 19.8184 196.949 19.4492 195.91 19.4492H193.142L193.101 31.7949C193.101 31.9316 193.046 32 192.937 32ZM196.751 7.80078H193.142V14.4043H196.751C197.612 14.4043 198.378 14.083 199.048 13.4404C199.731 12.7979 200.073 12.0117 200.073 11.082C200.073 10.1934 199.745 9.42773 199.089 8.78516C198.433 8.12891 197.653 7.80078 196.751 7.80078Z" fill="black"/>
<path d="M216.377 32H211.64C211.517 32 211.455 31.9316 211.455 31.7949V7.8418H206C205.863 7.8418 205.795 7.77344 205.795 7.63672L205.836 2.94043C205.836 2.83105 205.891 2.77637 206 2.77637H221.955C222.105 2.77637 222.181 2.83105 222.181 2.94043V7.63672C222.181 7.77344 222.126 7.8418 222.017 7.8418H216.5L216.541 31.7949C216.541 31.9316 216.486 32 216.377 32Z" fill="black"/>
</svg>
